<svg width="64" height="64" viewBox="0 0 64 64" fill="none" xmlns="http://www.w3.org/2000/svg">
<g filter="url(#filter0_i_14_257)">
<path d="M34.7733 52.2933C34.2891 50.8826 33.3757 49.6587 32.1611 48.7932C30.9465 47.9276 29.4915 47.4638 28 47.4666C24 47.4666 20.8 50.6666 20.8 54.6666V58.6666H10.6666C9.25216 58.6666 7.8956 58.1047 6.89541 57.1045C5.89522 56.1043 5.33331 54.7478 5.33331 53.3333V43.2H9.33331C13.3333 43.2 16.5333 40 16.5333 36C16.5333 32 13.3333 28.8 9.33331 28.8H5.33331V18.6666C5.33331 15.7333 7.73331 13.3333 10.6666 13.3333H21.3333V9.33329C21.3333 7.56518 22.0357 5.86949 23.2859 4.61925C24.5362 3.369 26.2319 2.66663 28 2.66663C29.7681 2.66663 31.4638 3.369 32.714 4.61925C33.9643 5.86949 34.6666 7.56518 34.6666 9.33329V13.3333H45.3333C46.7478 13.3333 48.1044 13.8952 49.1045 14.8954C50.1047 15.8956 50.6666 17.2521 50.6666 18.6666V29.3333H54.6666C56.4348 29.3333 58.1305 30.0357 59.3807 31.2859C60.6309 32.5362 61.3333 34.2318 61.3333 36C61.3333 36.8533 61.1733 37.6533 60.88 38.3733C58.0121 35.9842 54.3992 34.673 50.6666 34.6666C41.84 34.6666 34.6666 41.84 34.6666 50.6666C34.6666 51.2 34.6666 51.76 34.7733 52.2933ZM48 40V48H40V53.3333H48V61.3333H53.3333V53.3333H61.3333V48H53.3333V40H48Z" fill="#BAC0A7" fill-opacity="0.7"/>
</g>
<defs>
<filter id="filter0_i_14_257" x="5.33331" y="2.66663" width="60" height="62.6666" filterUnits="userSpaceOnUse" color-interpolation-filters="sRGB">
<feFlood flood-opacity="0" result="BackgroundImageFix"/>
<feBlend mode="normal" in="SourceGraphic" in2="BackgroundImageFix" result="shape"/>
<feColorMatrix in="SourceAlpha" type="matrix" values="0 0 0 0 0 0 0 0 0 0 0 0 0 0 0 0 0 0 127 0" result="hardAlpha"/>
<feOffset dx="4" dy="4"/>
<feGaussianBlur stdDeviation="2"/>
<feComposite in2="hardAlpha" operator="arithmetic" k2="-1" k3="1"/>
<feColorMatrix type="matrix" values="0 0 0 0 0 0 0 0 0 0 0 0 0 0 0 0 0 0 0.25 0"/>
<feBlend mode="normal" in2="shape" result="effect1_innerShadow_14_257"/>
</filter>
</defs>
</svg>
