<svg width="64" height="64" viewBox="0 0 64 64" fill="none" xmlns="http://www.w3.org/2000/svg">
<path d="M21.8536 30.2174C21.8321 29.1057 22.0325 28.0008 22.4431 26.9675C22.8537 25.9341 23.4662 24.993 24.2449 24.1992C25.0235 23.4054 25.9526 22.7748 26.9778 22.3443C28.003 21.9139 29.1038 21.6921 30.2157 21.6921C31.3276 21.6921 32.4284 21.9139 33.4536 22.3443C34.4789 22.7748 35.4079 23.4054 36.1866 24.1992C36.9652 24.993 37.5777 25.9341 37.9883 26.9675C38.3989 28.0008 38.5993 29.1057 38.5778 30.2174C38.5355 32.4072 37.6359 34.493 36.0723 36.0267C34.5087 37.5603 32.4059 38.4195 30.2157 38.4195C28.0255 38.4195 25.9227 37.5603 24.3591 36.0267C22.7955 34.493 21.8959 32.4072 21.8536 30.2174Z" fill="#BAC0A7" fill-opacity="0.7"/>
<g filter="url(#filter0_i_13_14)">
<path d="M27.52 1.01481C28.919 0.346733 30.4497 0 32 0C33.5503 0 35.081 0.346733 36.48 1.01481C37.71 1.60486 38.837 2.56641 40.4136 3.91196L40.6602 4.11801C42.1588 5.398 43.5917 6.00366 45.5929 6.16288L45.9113 6.18785C47.9781 6.35332 49.4547 6.46883 50.741 6.92463C52.2028 7.44109 53.5306 8.27797 54.6272 9.374C55.7238 10.47 56.5613 11.7974 57.0785 13.259C57.5312 14.5453 57.6467 16.0219 57.8121 18.0887L57.8371 18.4071C57.9963 20.4083 58.6051 21.8412 59.882 23.3398L60.088 23.5833C61.4336 25.163 62.3983 26.29 62.9852 27.52C63.6533 28.919 64 30.4497 64 32C64 33.5503 63.6533 35.081 62.9852 36.48C62.3951 37.71 61.4336 38.837 60.088 40.4136L59.882 40.6602C58.577 42.19 57.9932 43.6292 57.8371 45.5929L57.8121 45.9113C57.6467 47.9781 57.5312 49.4547 57.0754 50.741C56.5589 52.2028 55.722 53.5306 54.626 54.6272C53.53 55.7238 52.2026 56.5613 50.741 57.0785C49.4547 57.5312 47.9781 57.6467 45.9113 57.8121L45.5929 57.8371C43.5917 57.9963 42.1588 58.6051 40.6602 59.882L40.4136 60.088C38.837 61.4336 37.71 62.3983 36.48 62.9852C35.081 63.6533 33.5503 64 32 64C30.4497 64 28.919 63.6533 27.52 62.9852C26.29 62.3951 25.163 61.4336 23.5864 60.088L23.3398 59.882C21.9786 58.655 20.2371 57.9331 18.4071 57.8371L18.0887 57.8121C16.0219 57.6467 14.5453 57.5312 13.259 57.0754C11.7972 56.5589 10.4694 55.722 9.37279 54.626C8.27622 53.53 7.43869 52.2026 6.92151 50.741C6.46883 49.4547 6.35332 47.9781 6.18785 45.9113L6.16288 45.5929C6.06693 43.7629 5.34499 42.0214 4.11801 40.6602L3.91196 40.4136C2.56641 38.837 1.60173 37.71 1.01481 36.48C0.346733 35.081 0 33.5503 0 32C0 30.4497 0.346733 28.919 1.01481 27.52C1.60486 26.29 2.56641 25.163 3.91196 23.5864L4.11801 23.3398C5.34499 21.9786 6.06693 20.2371 6.16288 18.4071L6.18785 18.0887C6.35332 16.0219 6.46883 14.5453 6.92463 13.259C7.44109 11.7972 8.27797 10.4694 9.374 9.37279C10.47 8.27622 11.7974 7.43869 13.259 6.92151C14.5453 6.46883 16.0219 6.35332 18.0887 6.18785L18.4071 6.16288C20.2371 6.06693 21.9786 5.34499 23.3398 4.11801L23.5833 3.91196C25.163 2.56641 26.29 1.60173 27.52 1.01481ZM30.2174 17.1708C28.1708 17.1708 26.1529 17.6522 24.3268 18.5762C22.5007 19.5002 20.9176 20.8408 19.7054 22.4897C18.4932 24.1386 17.6859 26.0496 17.3488 28.0682C17.0116 30.0868 17.1541 32.1564 17.7647 34.1098C18.3753 36.0631 19.4369 37.8454 20.8636 39.3127C22.2903 40.7799 24.0422 41.8909 25.9778 42.556C27.9133 43.221 29.9781 43.4213 32.0053 43.1408C34.0325 42.8603 35.9654 42.1068 37.6476 40.9412L42.83 46.1392C43.0457 46.3631 43.3038 46.5419 43.5893 46.665C43.8748 46.7881 44.1819 46.8531 44.4928 46.8562C44.8037 46.8594 45.112 46.8005 45.4 46.6832C45.6879 46.5659 45.9495 46.3924 46.1697 46.1729C46.3898 45.9534 46.5641 45.6922 46.6822 45.4046C46.8003 45.117 46.86 44.8088 46.8578 44.4979C46.8555 44.187 46.7914 43.8797 46.6691 43.5939C46.5468 43.308 46.3688 43.0494 46.1455 42.8331L40.9537 37.6257C42.3046 35.6674 43.0943 33.3771 43.2375 31.0023C43.3806 28.6276 42.8717 26.259 41.7658 24.1526C40.6599 22.0463 38.9991 20.2824 36.9631 19.0518C34.927 17.8212 32.5964 17.1708 30.2174 17.1708Z" fill="#BAC0A7" fill-opacity="0.7"/>
</g>
<defs>
<filter id="filter0_i_13_14" x="0" y="0" width="68" height="68" filterUnits="userSpaceOnUse" color-interpolation-filters="sRGB">
<feFlood flood-opacity="0" result="BackgroundImageFix"/>
<feBlend mode="normal" in="SourceGraphic" in2="BackgroundImageFix" result="shape"/>
<feColorMatrix in="SourceAlpha" type="matrix" values="0 0 0 0 0 0 0 0 0 0 0 0 0 0 0 0 0 0 127 0" result="hardAlpha"/>
<feOffset dx="4" dy="4"/>
<feGaussianBlur stdDeviation="2"/>
<feComposite in2="hardAlpha" operator="arithmetic" k2="-1" k3="1"/>
<feColorMatrix type="matrix" values="0 0 0 0 0 0 0 0 0 0 0 0 0 0 0 0 0 0 0.25 0"/>
<feBlend mode="normal" in2="shape" result="effect1_innerShadow_13_14"/>
</filter>
</defs>
</svg>
